# xmcd
#
# Track frame offsets:
#	150
#	20210
#	38590
#	57664
#
# Disc length: 1502 seconds
#
# Revision: 1
# Processed by: cddbd v1.5.2PL0 Copyright (c) Steve Scherf et al.
# Submitted via: audiograbber 1.83.01
#
DISCID=3205dc04
DTITLE=Helloïse - After the war
DYEAR=1998
DGENRE=Hard Rock
TTITLE0=After the war
TTITLE1=See tomorrow
TTITLE2=Sole survivor
TTITLE3=Play it loud
EXTD=
EXTT0=
EXTT1=
EXTT2=
EXTT3=
PLAYORDER=
